<svg width="959.3349365234375px" height="122.0638671875px" xmlns="http://www.w3.org/2000/svg" viewBox="-229.66746826171874 13.968066406250003 959.3349365234375 122.0638671875" style="background-color: rgba(0, 0, 0, 0);" preserveAspectRatio="xMidYMid"><defs><filter id="editing-hole" x="-100%" y="-100%" width="300%" height="300%"><feFlood flood-color="#000" result="black"></feFlood><feMorphology operator="dilate" radius="2" in="SourceGraphic" result="erode"></feMorphology><feGaussianBlur in="erode" stdDeviation="4" result="blur"></feGaussianBlur><feOffset in="blur" dx="2" dy="2" result="offset"></feOffset><feComposite operator="atop" in="offset" in2="black" result="merge"></feComposite><feComposite operator="in" in="merge" in2="SourceGraphic" result="inner-shadow"></feComposite></filter></defs><g filter="url(#editing-hole)"><g transform="translate(-91.28001582622528, 104.62718772888184)"><path d="M6.53 0L-0.83 0L10.75-42.24L24.13-42.24L27.07-18.11L38.98-42.24L50.18-42.24L51.33-10.62L51.33-10.62Q51.58-4.35 54.66-2.43L54.66-2.43L54.66-2.43Q53.95-1.15 51.90 0.06L51.90 0.06L51.90 0.06Q49.86 1.28 47.14 1.28L47.14 1.28L47.14 1.28Q44.42 1.28 42.82 0.51L42.82 0.51L42.82 0.51Q41.22-0.26 40.32-1.54L40.32-1.54L40.32-1.54Q38.72-3.84 38.72-8.26L38.72-8.26L38.72-28.03L26.11 0L18.18 0L13.70-28.74L6.53 0ZM60.19-1.92L60.19-1.92L60.19-1.92Q58.69-3.58 58.02-6.21L58.02-6.21L58.02-6.21Q57.34-8.83 57.34-13.12L57.34-13.12L57.34-13.12Q57.34-17.41 58.82-21.31L58.82-21.31L58.82-21.31Q60.29-25.22 62.98-28.03L62.98-28.03L62.98-28.03Q68.48-33.92 77.57-33.92L77.57-33.92L77.57-33.92Q80.83-33.92 83.20-32.83L83.20-32.83L94.14-33.92L89.41-8.96L89.41-8.96Q89.22-8.19 89.22-6.78L89.22-6.78L89.22-6.78Q89.22-5.38 90.08-4.48L90.08-4.48L90.08-4.48Q90.94-3.58 92.22-3.46L92.22-3.46L92.22-3.46Q91.58-1.28 89.25 0L89.25 0L89.25 0Q86.91 1.28 84.29 1.28L84.29 1.28L84.29 1.28Q81.66 1.28 79.90 0.29L79.90 0.29L79.90 0.29Q78.14-0.70 77.63-2.37L77.63-2.37L77.63-2.37Q76.61-0.77 74.43 0.26L74.43 0.26L74.43 0.26Q72.26 1.28 69.34 1.28L69.34 1.28L69.34 1.28Q66.43 1.28 64.06 0.51L64.06 0.51L64.06 0.51Q61.70-0.26 60.19-1.92ZM73.70-27.90L73.70-27.90L73.70-27.90Q72.96-26.75 72.32-24.80L72.32-24.80L72.32-24.80Q71.68-22.85 70.62-17.63L70.62-17.63L70.62-17.63Q69.57-12.42 69.57-8.70L69.57-8.70L69.57-8.70Q69.57-4.99 70.14-3.90L70.14-3.90L70.14-3.90Q70.72-2.82 71.74-2.82L71.74-2.82L71.74-2.82Q73.79-2.82 75.30-4.77L75.30-4.77L75.30-4.77Q76.80-6.72 77.38-10.18L77.38-10.18L80.77-28.93L80.77-28.93Q79.42-30.08 77.86-30.08L77.86-30.08L77.86-30.08Q76.29-30.08 75.36-29.57L75.36-29.57L75.36-29.57Q74.43-29.06 73.70-27.90ZM117.50-33.92L117.50-33.92L117.50-33.92Q119.81-33.92 121.60-33.41L121.60-33.41L121.60-33.41Q121.66-33.66 121.79-34.37L121.79-34.37L122.11-36.35L122.11-36.35Q122.37-37.63 122.75-39.74L122.75-39.74L123.78-44.80L136.51-46.08L129.41-8.96L129.41-8.96Q129.34-8.58 129.34-7.94L129.34-7.94L129.34-6.91L129.34-6.91Q129.34-5.50 130.05-4.45L130.05-4.45L130.05-4.45Q130.75-3.39 131.90-3.39L131.90-3.39L131.90-3.39Q130.62-0.38 126.72 0.90L126.72 0.90L126.72 0.90Q125.38 1.28 123.49 1.28L123.49 1.28L123.49 1.28Q121.60 1.28 119.87 0.29L119.87 0.29L119.87 0.29Q118.14-0.70 117.63-2.37L117.63-2.37L117.63-2.37Q116.61-0.70 114.56 0.29L114.56 0.29L114.56 0.29Q112.51 1.28 109.54 1.28L109.54 1.28L109.54 1.28Q106.56 1.28 104.10 0.51L104.10 0.51L104.10 0.51Q101.63-0.26 100.10-1.92L100.10-1.92L100.10-1.92Q97.28-5.18 97.28-12.61L97.28-12.61L97.28-12.61Q97.28-22.21 102.91-28.03L102.91-28.03L102.91-28.03Q108.54-33.92 117.50-33.92ZM117.06-30.08L117.06-30.08L117.06-30.08Q114.69-30.08 113.41-27.52L113.41-27.52L113.41-27.52Q112.13-24.96 110.82-18.62L110.82-18.62L110.82-18.62Q109.50-12.29 109.50-6.59L109.50-6.59L109.50-6.59Q109.50-2.69 111.81-2.69L111.81-2.69L111.81-2.69Q113.86-2.69 115.30-4.74L115.30-4.74L115.30-4.74Q116.74-6.78 117.31-10.18L117.31-10.18L120.77-28.93L120.77-28.93Q119.42-30.08 117.06-30.08ZM152.70-3.52L152.70-3.52L152.70-3.52Q150.72 1.28 144.38 1.28L144.38 1.28L144.38 1.28Q141.12 1.28 139.07-0.96L139.07-0.96L139.07-0.96Q137.34-2.94 137.34-4.93L137.34-4.93L137.34-4.93Q137.34-10.11 139.71-20.22L139.71-20.22L142.08-32.64L155.07-33.92L151.17-13.70L151.17-13.70Q150.08-8.96 150.08-7.30L150.08-7.30L150.08-7.30Q150.08-3.65 152.70-3.52ZM143.23-41.54L143.23-41.54L143.23-41.54Q143.23-44.03 145.31-45.38L145.31-45.38L145.31-45.38Q147.39-46.72 150.40-46.72L150.40-46.72L150.40-46.72Q153.41-46.72 155.23-45.38L155.23-45.38L155.23-45.38Q157.06-44.03 157.06-41.54L157.06-41.54L157.06-41.54Q157.06-39.04 155.04-37.76L155.04-37.76L155.04-37.76Q153.02-36.48 150.02-36.48L150.02-36.48L150.02-36.48Q147.01-36.48 145.12-37.76L145.12-37.76L145.12-37.76Q143.23-39.04 143.23-41.54ZM185.22 1.28L185.22 1.28L185.22 1.28Q177.47 1.28 177.47-4.74L177.47-4.74L177.47-4.74Q177.54-6.40 178.05-9.22L178.05-9.22L179.20-15.10L179.20-15.10Q180.93-23.42 180.93-25.28L180.93-25.28L180.93-25.28Q180.93-28.99 178.75-28.99L178.75-28.99L178.75-28.99Q175.10-28.99 173.18-19.46L173.18-19.46L169.41 0L156.54 1.28L163.20-32.70L173.70-33.92L172.67-27.65L172.67-27.65Q175.68-33.92 184.90-33.92L184.90-33.92L184.90-33.92Q189.38-33.92 191.26-32.03L191.26-32.03L191.26-32.03Q193.15-30.14 193.15-25.92L193.15-25.92L193.15-25.92Q193.15-21.95 191.10-12.67L191.10-12.67L191.10-12.67Q190.14-8.51 190.14-6.94L190.14-6.94L190.14-6.94Q190.14-5.38 191.01-4.48L191.01-4.48L191.01-4.48Q191.87-3.58 193.15-3.46L193.15-3.46L193.15-3.46Q192.51-1.28 190.30 0L190.30 0L190.30 0Q188.10 1.28 185.22 1.28ZM201.06-1.92L201.06-1.92L201.06-1.92Q199.55-3.58 198.88-6.21L198.88-6.21L198.88-6.21Q198.21-8.83 198.21-13.12L198.21-13.12L198.21-13.12Q198.21-17.41 199.68-21.31L199.68-21.31L199.68-21.31Q201.15-25.22 203.84-28.03L203.84-28.03L203.84-28.03Q209.34-33.92 218.43-33.92L218.43-33.92L218.43-33.92Q221.70-33.92 224.06-32.83L224.06-32.83L235.01-33.92L230.27-8.96L230.27-8.96Q230.08-8.19 230.08-6.78L230.08-6.78L230.08-6.78Q230.08-5.38 230.94-4.48L230.94-4.48L230.94-4.48Q231.81-3.58 233.09-3.46L233.09-3.46L233.09-3.46Q232.45-1.28 230.11 0L230.11 0L230.11 0Q227.78 1.28 225.15 1.28L225.15 1.28L225.15 1.28Q222.53 1.28 220.77 0.29L220.77 0.29L220.77 0.29Q219.01-0.70 218.50-2.37L218.50-2.37L218.50-2.37Q217.47-0.77 215.30 0.26L215.30 0.26L215.30 0.26Q213.12 1.28 210.21 1.28L210.21 1.28L210.21 1.28Q207.30 1.28 204.93 0.51L204.93 0.51L204.93 0.51Q202.56-0.26 201.06-1.92ZM214.56-27.90L214.56-27.90L214.56-27.90Q213.82-26.75 213.18-24.80L213.18-24.80L213.18-24.80Q212.54-22.85 211.49-17.63L211.49-17.63L211.49-17.63Q210.43-12.42 210.43-8.70L210.43-8.70L210.43-8.70Q210.43-4.99 211.01-3.90L211.01-3.90L211.01-3.90Q211.58-2.82 212.61-2.82L212.61-2.82L212.61-2.82Q214.66-2.82 216.16-4.77L216.16-4.77L216.16-4.77Q217.66-6.72 218.24-10.18L218.24-10.18L221.63-28.93L221.63-28.93Q220.29-30.08 218.72-30.08L218.72-30.08L218.72-30.08Q217.15-30.08 216.22-29.57L216.22-29.57L216.22-29.57Q215.30-29.06 214.56-27.90ZM293.18-26.56L293.18-26.56L293.18-26.56Q293.18 0.70 263.62 0.70L263.62 0.70L263.62 0.70Q258.88 0.70 251.07-0.45L251.07-0.45L258.24-38.27L258.24-38.27Q258.75-40.83 259.07-42.30L259.07-42.30L259.07-42.30Q268.80-43.01 273.12-43.01L273.12-43.01L273.12-43.01Q277.44-43.01 281.41-42.11L281.41-42.11L281.41-42.11Q285.38-41.22 288-39.23L288-39.23L288-39.23Q293.18-35.33 293.18-26.56ZM280.00-28.93L280.00-28.93L280.00-28.93Q280.00-38.46 273.15-38.46L273.15-38.46L272.51-38.46L272.51-38.46Q272.19-38.46 271.87-38.40L271.87-38.40L265.28-4.03L265.28-4.03Q265.54-3.90 265.79-3.90L265.79-3.90L266.30-3.90L266.30-3.90Q268.67-3.90 271.14-5.38L271.14-5.38L271.14-5.38Q273.60-6.85 275.52-9.86L275.52-9.86L275.52-9.86Q280.00-16.83 280.00-28.93ZM308.77 0.64L308.77 0.64L308.77 0.64Q305.73 0 304.16-0.29L304.16-0.29L304.16-0.29Q302.59-0.58 300.77-0.58L300.77-0.58L300.77-0.58Q298.94-0.58 297.15 0.06L297.15 0.06L297.15 0.06Q296.19-0.51 295.58-1.66L295.58-1.66L295.58-1.66Q294.98-2.82 294.98-4.61L294.98-4.61L294.98-4.61Q294.98-8.38 298.82-11.26L298.82-11.26L315.07-22.98L315.07-22.98Q310.53-24.26 306.40-24.26L306.40-24.26L306.40-24.26Q302.27-24.26 300.80-21.44L300.80-21.44L300.80-21.44Q298.62-24 298.62-28.03L298.62-28.03L298.62-28.03Q298.62-30.72 300.58-32.48L300.58-32.48L300.58-32.48Q302.53-34.24 306.62-34.24L306.62-34.24L306.62-34.24Q308.93-34.24 311.01-33.95L311.01-33.95L311.01-33.95Q313.09-33.66 314.94-33.41L314.94-33.41L318.40-32.90L318.40-32.90Q320.06-32.64 321.76-32.64L321.76-32.64L321.76-32.64Q323.46-32.64 324.74-33.34L324.74-33.34L324.74-33.34Q326.40-31.81 326.40-29.70L326.40-29.70L326.40-29.70Q326.40-26.37 322.30-22.91L322.30-22.91L306.11-10.82L306.11-10.82Q311.10-9.34 313.66-9.34L313.66-9.34L313.66-9.34Q319.04-9.34 321.34-11.90L321.34-11.90L321.34-11.90Q323.14-9.86 323.14-6.30L323.14-6.30L323.14-6.30Q323.14-2.75 320.83-0.74L320.83-0.74L320.83-0.74Q318.53 1.28 314.37 1.28L314.37 1.28L314.37 1.28Q311.81 1.28 308.77 0.64ZM360.90-7.10L360.90-7.10L360.90-7.10Q360.90-4.29 363.78-3.46L363.78-3.46L363.78-3.46Q363.07-1.09 360.32 0.19L360.32 0.19L360.32 0.19Q358.02 1.28 355.49 1.28L355.49 1.28L355.49 1.28Q352.96 1.28 351.65 0.61L351.65 0.61L351.65 0.61Q350.34-0.06 349.63-1.15L349.63-1.15L349.63-1.15Q348.48-2.82 348.48-5.95L348.48-5.95L348.48-5.95Q348.48-7.81 349.50-12.93L349.50-12.93L350.40-17.79L350.40-17.79Q351.49-23.36 351.49-25.41L351.49-25.41L351.49-25.41Q351.49-28.99 349.50-28.99L349.50-28.99L349.50-28.99Q347.01-28.99 345.41-25.34L345.41-25.34L345.41-25.34Q344.77-23.94 344.32-21.82L344.32-21.82L339.97 0L327.10 1.28L336.13-44.80L348.99-46.08L348.48-43.52L348.48-43.52Q346.69-33.66 345.15-30.34L345.15-30.34L345.15-30.34Q348.74-33.92 355.33-33.92L355.33-33.92L355.33-33.92Q362.30-33.92 363.58-29.31L363.58-29.31L363.58-29.31Q364.03-27.84 364.03-26.56L364.03-26.56L364.03-26.56Q364.03-25.28 363.94-24.29L363.94-24.29L363.94-24.29Q363.84-23.30 363.52-21.50L363.52-21.50L362.69-16.90L361.22-9.66L361.22-9.66Q360.90-8.19 360.90-7.10ZM394.88-10.82L394.88-10.82L394.88-10.82Q396.48-9.73 396.48-7.33L396.48-7.33L396.48-7.33Q396.48-4.93 395.26-3.39L395.26-3.39L395.26-3.39Q394.05-1.86 392.06-0.83L392.06-0.83L392.06-0.83Q387.97 1.28 383.55 1.28L383.55 1.28L383.55 1.28Q379.14 1.28 376.54 0.32L376.54 0.32L376.54 0.32Q373.95-0.64 372.22-2.43L372.22-2.43L372.22-2.43Q368.83-5.82 368.83-12.03L368.83-12.03L368.83-12.03Q368.83-21.70 374.08-27.58L374.08-27.58L374.08-27.58Q379.71-33.92 389.50-33.92L389.50-33.92L389.50-33.92Q395.58-33.92 398.59-31.36L398.59-31.36L398.59-31.36Q400.83-29.44 400.83-26.30L400.83-26.30L400.83-26.30Q400.83-15.04 381.38-15.04L381.38-15.04L381.38-15.04Q381.12-13.38 381.12-11.97L381.12-11.97L381.12-11.97Q381.12-9.02 382.43-7.90L382.43-7.90L382.43-7.90Q383.74-6.78 386.18-6.78L386.18-6.78L386.18-6.78Q388.61-6.78 391.20-7.90L391.20-7.90L391.20-7.90Q393.79-9.02 394.88-10.82ZM381.82-17.79L381.82-17.79L381.82-17.79Q386.37-17.79 388.99-20.61L388.99-20.61L388.99-20.61Q391.62-23.30 391.62-27.58L391.62-27.58L391.62-27.58Q391.62-29.06 391.07-29.86L391.07-29.86L391.07-29.86Q390.53-30.66 389.44-30.66L389.44-30.66L389.44-30.66Q388.35-30.66 387.42-30.24L387.42-30.24L387.42-30.24Q386.50-29.82 385.54-28.42L385.54-28.42L385.54-28.42Q383.17-25.22 381.82-17.79ZM404.03-6.40L404.03-6.40L404.03-6.40Q404.03-8.13 404.93-12.48L404.93-12.48L408.32-29.76L404.54-29.76L404.80-31.68L404.80-31.68Q412.48-33.98 419.90-39.62L419.90-39.62L422.98-39.62L421.44-32.64L426.43-32.64L425.86-29.76L420.93-29.76L417.66-12.48L417.66-12.48Q416.83-8.51 416.83-7.17L416.83-7.17L416.83-7.17Q416.83-4.10 419.52-3.46L419.52-3.46L419.52-3.46Q418.88-1.28 416.58 0L416.58 0L416.58 0Q414.27 1.28 411.01 1.28L411.01 1.28L411.01 1.28Q407.74 1.28 405.89-0.77L405.89-0.77L405.89-0.77Q404.03-2.82 404.03-6.40ZM451.78-10.82L451.78-10.82L451.78-10.82Q453.38-9.73 453.38-7.33L453.38-7.33L453.38-7.33Q453.38-4.93 452.16-3.39L452.16-3.39L452.16-3.39Q450.94-1.86 448.96-0.83L448.96-0.83L448.96-0.83Q444.86 1.28 440.45 1.28L440.45 1.28L440.45 1.28Q436.03 1.28 433.44 0.32L433.44 0.32L433.44 0.32Q430.85-0.64 429.12-2.43L429.12-2.43L429.12-2.43Q425.73-5.82 425.73-12.03L425.73-12.03L425.73-12.03Q425.73-21.70 430.98-27.58L430.98-27.58L430.98-27.58Q436.61-33.92 446.40-33.92L446.40-33.92L446.40-33.92Q452.48-33.92 455.49-31.36L455.49-31.36L455.49-31.36Q457.73-29.44 457.73-26.30L457.73-26.30L457.73-26.30Q457.73-15.04 438.27-15.04L438.27-15.04L438.27-15.04Q438.02-13.38 438.02-11.97L438.02-11.97L438.02-11.97Q438.02-9.02 439.33-7.90L439.33-7.90L439.33-7.90Q440.64-6.78 443.07-6.78L443.07-6.78L443.07-6.78Q445.50-6.78 448.10-7.90L448.10-7.90L448.10-7.90Q450.69-9.02 451.78-10.82ZM438.72-17.79L438.72-17.79L438.72-17.79Q443.26-17.79 445.89-20.61L445.89-20.61L445.89-20.61Q448.51-23.30 448.51-27.58L448.51-27.58L448.51-27.58Q448.51-29.06 447.97-29.86L447.97-29.86L447.97-29.86Q447.42-30.66 446.34-30.66L446.34-30.66L446.34-30.66Q445.25-30.66 444.32-30.24L444.32-30.24L444.32-30.24Q443.39-29.82 442.43-28.42L442.43-28.42L442.43-28.42Q440.06-25.22 438.72-17.79ZM464.45-26.75L464.45-26.75L464.45-26.75Q466.62-29.82 469.92-31.87L469.92-31.87L469.92-31.87Q473.22-33.92 477.25-33.92L477.25-33.92L477.25-33.92Q481.28-33.92 483.20-32.64L483.20-32.64L495.74-33.92L491.39-9.34L491.39-9.34Q489.15 3.20 484.42 8.13L484.42 8.13L484.42 8.13Q479.87 12.80 471.04 12.80L471.04 12.80L471.04 12.80Q464.32 12.80 460.48 10.69L460.48 10.69L460.48 10.69Q456.64 8.58 456.64 5.06L456.64 5.06L456.64 5.06Q456.64 2.43 458.62 0.93L458.62 0.93L458.62 0.93Q460.61-0.58 463.68-0.58L463.68-0.58L463.68-0.58Q466.37-0.58 468.42 0.64L468.42 0.64L468.42 0.64Q469.63 1.28 470.21 2.18L470.21 2.18L470.21 2.18Q468.74 3.46 468.74 5.57L468.74 5.57L468.74 5.57Q468.74 8.32 471.30 8.32L471.30 8.32L471.30 8.32Q475.58 8.32 478.02-1.79L478.02-1.79L478.02-1.79Q478.72-4.54 479.30-7.30L479.30-7.30L479.30-7.30Q476.42-3.78 469.89-3.78L469.89-3.78L469.89-3.78Q465.34-3.78 462.72-5.95L462.72-5.95L462.72-5.95Q460.10-8.13 460.10-13.25L460.10-13.25L460.10-13.25Q460.10-16.45 461.18-20.06L461.18-20.06L461.18-20.06Q462.27-23.68 464.45-26.75ZM472.77-13.06L472.77-13.06L472.77-13.06Q472.77-8.70 475.01-8.70L475.01-8.70L475.01-8.70Q476.54-8.70 478.02-10.37L478.02-10.37L478.02-10.37Q479.17-11.71 479.62-13.70L479.62-13.70L482.88-30.14L482.88-30.14Q482.56-30.21 482.24-30.34L482.24-30.34L482.24-30.34Q481.60-30.59 480.77-30.59L480.77-30.59L480.77-30.59Q476.86-30.59 474.56-24.19L474.56-24.19L474.56-24.19Q472.77-19.20 472.77-13.06ZM524.16-10.82L524.16-10.82L524.16-10.82Q525.76-9.73 525.76-7.33L525.76-7.33L525.76-7.33Q525.76-4.93 524.54-3.39L524.54-3.39L524.54-3.39Q523.33-1.86 521.34-0.83L521.34-0.83L521.34-0.83Q517.25 1.28 512.83 1.28L512.83 1.28L512.83 1.28Q508.42 1.28 505.82 0.32L505.82 0.32L505.82 0.32Q503.23-0.64 501.50-2.43L501.50-2.43L501.50-2.43Q498.11-5.82 498.11-12.03L498.11-12.03L498.11-12.03Q498.11-21.70 503.36-27.58L503.36-27.58L503.36-27.58Q508.99-33.92 518.78-33.92L518.78-33.92L518.78-33.92Q524.86-33.92 527.87-31.36L527.87-31.36L527.87-31.36Q530.11-29.44 530.11-26.30L530.11-26.30L530.11-26.30Q530.11-15.04 510.66-15.04L510.66-15.04L510.66-15.04Q510.40-13.38 510.40-11.97L510.40-11.97L510.40-11.97Q510.40-9.02 511.71-7.90L511.71-7.90L511.71-7.90Q513.02-6.78 515.46-6.78L515.46-6.78L515.46-6.78Q517.89-6.78 520.48-7.90L520.48-7.90L520.48-7.90Q523.07-9.02 524.16-10.82ZM511.10-17.79L511.10-17.79L511.10-17.79Q515.65-17.79 518.27-20.61L518.27-20.61L518.27-20.61Q520.90-23.30 520.90-27.58L520.90-27.58L520.90-27.58Q520.90-29.06 520.35-29.86L520.35-29.86L520.35-29.86Q519.81-30.66 518.72-30.66L518.72-30.66L518.72-30.66Q517.63-30.66 516.70-30.24L516.70-30.24L516.70-30.24Q515.78-29.82 514.82-28.42L514.82-28.42L514.82-28.42Q512.45-25.22 511.10-17.79ZM559.36 1.28L559.36 1.28L559.36 1.28Q551.62 1.28 551.62-4.74L551.62-4.74L551.62-4.74Q551.68-6.40 552.19-9.22L552.19-9.22L553.34-15.10L553.34-15.10Q555.07-23.42 555.07-25.28L555.07-25.28L555.07-25.28Q555.07-28.99 552.90-28.99L552.90-28.99L552.90-28.99Q549.25-28.99 547.33-19.46L547.33-19.46L543.55 0L530.69 1.28L537.34-32.70L547.84-33.92L546.82-27.65L546.82-27.65Q549.82-33.92 559.04-33.92L559.04-33.92L559.04-33.92Q563.52-33.92 565.41-32.03L565.41-32.03L565.41-32.03Q567.30-30.14 567.30-25.92L567.30-25.92L567.30-25.92Q567.30-21.95 565.25-12.67L565.25-12.67L565.25-12.67Q564.29-8.51 564.29-6.94L564.29-6.94L564.29-6.94Q564.29-5.38 565.15-4.48L565.15-4.48L565.15-4.48Q566.02-3.58 567.30-3.46L567.30-3.46L567.30-3.46Q566.66-1.28 564.45 0L564.45 0L564.45 0Q562.24 1.28 559.36 1.28ZM586.37 1.28L586.37 1.28L586.37 1.28Q572.29 1.28 572.29-11.97L572.29-11.97L572.29-11.97Q572.29-21.38 577.47-27.46L577.47-27.46L577.47-27.46Q582.98-33.92 592.51-33.92L592.51-33.92L592.51-33.92Q599.42-33.92 602.94-30.72L602.94-30.72L602.94-30.72Q606.46-27.52 606.46-20.80L606.46-20.80L606.46-20.80Q606.46-10.56 600.96-4.61L600.96-4.61L600.96-4.61Q595.58 1.28 586.37 1.28ZM588.03-26.56L588.03-26.56L588.03-26.56Q587.26-24.83 586.66-22.24L586.66-22.24L586.66-22.24Q586.05-19.65 585.28-15.55L585.28-15.55L585.28-15.55Q584.51-11.46 584.51-6.40L584.51-6.40L584.51-6.40Q584.51-4.74 585.06-3.65L585.06-3.65L585.06-3.65Q585.60-2.56 587.07-2.56L587.07-2.56L587.07-2.56Q588.54-2.56 589.47-3.26L589.47-3.26L589.47-3.26Q590.40-3.97 591.10-5.63L591.10-5.63L591.10-5.63Q592.38-8.58 593.41-14.05L593.41-14.05L593.41-14.05Q594.43-19.52 594.53-21.89L594.53-21.89L594.53-21.89Q594.62-24.26 594.62-26.02L594.62-26.02L594.62-26.02Q594.62-27.78 594.11-28.93L594.11-28.93L594.11-28.93Q593.60-30.08 592.16-30.08L592.16-30.08L592.16-30.08Q590.72-30.08 589.76-29.18L589.76-29.18L589.76-29.18Q588.80-28.29 588.03-26.56ZM633.47-31.55L633.47-31.55L633.47-31.55Q635.58-33.92 639.23-33.92L639.23-33.92L639.23-33.92Q641.47-33.92 643.20-32.70L643.20-32.70L643.20-32.70Q644.93-31.49 644.93-29.22L644.93-29.22L644.93-29.22Q644.93-26.94 644.22-24.51L644.22-24.51L644.22-24.51Q643.52-22.08 642.43-19.58L642.43-19.58L642.43-19.58Q640.26-14.72 637.25-10.69L637.25-10.69L637.25-10.69Q633.02-4.86 628.96-1.79L628.96-1.79L628.96-1.79Q624.90 1.28 620.48 1.28L620.48 1.28L620.48 1.28Q616.90 1.28 614.72 0.45L614.72 0.45L614.72 0.45Q614.34-12.99 613.86-17.79L613.86-17.79L613.86-17.79Q613.38-22.59 612.99-25.22L612.99-25.22L612.99-25.22Q612.35-30.34 610.43-31.55L610.43-31.55L610.43-31.55Q611.90-32.83 613.34-33.38L613.34-33.38L613.34-33.38Q614.78-33.92 617.76-33.92L617.76-33.92L617.76-33.92Q620.74-33.92 622.85-31.58L622.85-31.58L622.85-31.58Q624.96-29.25 625.38-25.12L625.38-25.12L625.38-25.12Q625.79-20.99 625.79-16L625.79-16L625.79-16Q625.79-11.01 625.41-4.99L625.41-4.99L625.41-4.99Q627.39-6.40 629.50-10.69L629.50-10.69L629.50-10.69Q632.38-16.64 633.41-23.81L633.41-23.81L633.41-23.81Q633.73-25.98 633.73-28.29L633.73-28.29L633.73-28.29Q633.73-30.59 633.47-31.55ZM649.44-1.92L649.44-1.92L649.44-1.92Q647.94-3.58 647.26-6.21L647.26-6.21L647.26-6.21Q646.59-8.83 646.59-13.12L646.59-13.12L646.59-13.12Q646.59-17.41 648.06-21.31L648.06-21.31L648.06-21.31Q649.54-25.22 652.22-28.03L652.22-28.03L652.22-28.03Q657.73-33.92 666.82-33.92L666.82-33.92L666.82-33.92Q670.08-33.92 672.45-32.83L672.45-32.83L683.39-33.92L678.66-8.96L678.66-8.96Q678.46-8.19 678.46-6.78L678.46-6.78L678.46-6.78Q678.46-5.38 679.33-4.48L679.33-4.48L679.33-4.48Q680.19-3.58 681.47-3.46L681.47-3.46L681.47-3.46Q680.83-1.28 678.50 0L678.50 0L678.50 0Q676.16 1.28 673.54 1.28L673.54 1.28L673.54 1.28Q670.91 1.28 669.15 0.29L669.15 0.29L669.15 0.29Q667.39-0.70 666.88-2.37L666.88-2.37L666.88-2.37Q665.86-0.77 663.68 0.26L663.68 0.26L663.68 0.26Q661.50 1.28 658.59 1.28L658.59 1.28L658.59 1.28Q655.68 1.28 653.31 0.51L653.31 0.51L653.31 0.51Q650.94-0.26 649.44-1.92ZM662.94-27.90L662.94-27.90L662.94-27.90Q662.21-26.75 661.57-24.80L661.57-24.80L661.57-24.80Q660.93-22.85 659.87-17.63L659.87-17.63L659.87-17.63Q658.82-12.42 658.82-8.70L658.82-8.70L658.82-8.70Q658.82-4.99 659.39-3.90L659.39-3.90L659.39-3.90Q659.97-2.82 660.99-2.82L660.99-2.82L660.99-2.82Q663.04-2.82 664.54-4.77L664.54-4.77L664.54-4.77Q666.05-6.72 666.62-10.18L666.62-10.18L670.02-28.93L670.02-28.93Q668.67-30.08 667.10-30.08L667.10-30.08L667.10-30.08Q665.54-30.08 664.61-29.57L664.61-29.57L664.61-29.57Q663.68-29.06 662.94-27.90Z" fill="#ccc"></path></g></g><style>text {
  font-size: 64px;
  font-family: Arial Black;
  dominant-baseline: central;
  text-anchor: middle;
}</style></svg>